<?xml version="1.0" encoding="UTF-8" standalone="no"?>
<!-- Created with Inkscape (http://www.inkscape.org/) -->

<svg
   version="1.1"
   id="svg1"
   width="963.54572"
   height="969.91284"
   viewBox="0 0 963.54571 969.91284"
   sodipodi:docname="icon-inkscape.svg"
   inkscape:version="1.4.2 (2aeb623e1d, 2025-05-12)"
   xmlns:inkscape="http://www.inkscape.org/namespaces/inkscape"
   xmlns:sodipodi="http://sodipodi.sourceforge.net/DTD/sodipodi-0.dtd"
   xmlns="http://www.w3.org/2000/svg"
   xmlns:svg="http://www.w3.org/2000/svg">
  <defs
     id="defs1" />
  <sodipodi:namedview
     id="namedview1"
     pagecolor="#ffffff"
     bordercolor="#000000"
     borderopacity="0.25"
     inkscape:showpageshadow="2"
     inkscape:pageopacity="0.0"
     inkscape:pagecheckerboard="0"
     inkscape:deskcolor="#d1d1d1"
     showgrid="false"
     inkscape:zoom="0.46994801"
     inkscape:cx="509.63084"
     inkscape:cy="456.43346"
     inkscape:window-width="1982"
     inkscape:window-height="1083"
     inkscape:window-x="0"
     inkscape:window-y="0"
     inkscape:window-maximized="1"
     inkscape:current-layer="g1" />
  <g
     inkscape:groupmode="layer"
     inkscape:label="Image"
     id="g1"
     transform="translate(-5.3825501,-13.295415)">
    <path
       style="fill:#000000"
       id="path1"
       d="" />
    <g
       id="g3"
       transform="translate(-861.79745,-8.5115798)">
      <rect
         style="fill:#ffffff;fill-opacity:1;stroke:none;stroke-width:0.990404"
         id="rect3"
         width="785.52063"
         height="815.40454"
         x="971.93945"
         y="96.767029" />
      <path
         style="fill:#ee8181;stroke:none"
         d="m 1104.4192,23.515107 c -38.7945,2.585042 -75.8034,4.916666 -111.99998,20.829101 -16.39117,7.205729 -31.49111,16.779459 -45.33324,28.118896 -78.58222,64.374346 -77.33342,157.703526 -77.33342,250.431066 v 278.66666 c 0,98.95142 -18.68994,221.09017 44.68344,305.33333 56.91141,75.65315 143.8587,84 231.3166,84 h 305.3333 c 60.6353,0 122.244,3.09065 182.6666,-2.68718 87.0945,-8.32829 161.6604,-64.80354 185.3588,-150.64615 15.9671,-57.83773 10.6412,-120.64315 10.6412,-180 V 368.2275 c 0,-86.795 11.2183,-182.87581 -42.5214,-257.33333 -56.0304,-77.63118 -144.9476,-87.999994 -233.4786,-87.999994 h -293.3333 c -51.7301,0 -104.3826,-2.818604 -156,0.620931 m 406.6667,180.712403 c -2.896,28.80826 -0.071,57.80403 -1.6974,86.66666 -0.6059,10.74976 -4.5601,28.87484 1.4794,38.5262 4.5571,7.28248 16.9516,5.46464 24.2183,5.47234 17.0035,0.0179 45.3259,-5.37134 60.6817,2.71809 12.741,6.71192 5.6754,21.30758 -6.1107,23.30599 -26.1997,4.4423 -56.0032,0.64405 -82.5713,0.64405 5.783,39.65718 2.6347,83.87577 2.6666,123.99999 l -29.3333,1.33334 -1.3333,-124 -121.3333,1.33333 c 2e-4,9.61804 -2.0335,22.41769 -1.4667,72.23867 0.5668,49.82098 1.4786,58.11753 1.4667,65.09466 h 69.3333 v 1.33334 c -9.9082,6.57503 -16.4997,18.74642 -26.5451,24.21948 -10.832,5.90165 -29.4519,2.44718 -41.4549,2.44718 v 140 h 32 v 29.33333 h -32 c 0,30.25895 -1.1228,60.4235 -1.3498,90.66642 -0.076,10.15251 -0.6016,27.12403 -14.7015,27.07064 -14.3354,-0.0543 -15.8312,-16.39323 -15.929,-27.07064 -0.277,-30.27099 1.0488,-60.4366 1.3136,-90.66642 h -121.3333 c 9e-4,30.23666 1.4977,60.4034 1.3218,90.66642 -0.061,10.53353 -0.5529,26.78085 -14.7229,27.4209 -14.6565,0.66211 -16.2794,-15.27596 -16.081,-26.08781 0.5623,-30.65193 0.1488,-61.34261 0.1488,-91.99951 l -124,-1.33333 c -4.6202,33.67252 4.0729,69.3431 -2.238,102.64437 -2.7214,14.36043 -19.2463,24.29475 -31.0044,12.16935 -13.5591,-13.98275 -6.7576,-50.15316 -6.7576,-68.14706 V 557.56083 276.2275 l 4e-4,-69.33333 c 0,-11.28125 -1.3481,-24.40437 6.1821,-33.79248 8.6322,-10.76196 22.6534,-10.18497 35.1508,-10.20475 l 81.3333,-0.003 h 338.6667 l 92,0.003 c 13.1072,0.0212 28.1527,-0.34651 35.9382,12.34359 6.6515,10.84163 2.1981,25.30566 -10.7316,28.10522 -25.0719,5.42871 -55.5701,0.88176 -81.2066,0.88176 m -304,0 v 130.66666 h 121.3333 l -1.3333,-132 -120,1.33334 m 150.6667,-1.33334 v 132 l 121.3333,-1.33333 1.3333,-129.33333 -122.6666,-1.33334 m -305.3334,133.33333 124,-1.33333 -1.3333,-129.33333 -85.3333,8e-5 c -9.6225,8.1e-4 -25.0889,-2.50667 -32.6623,4.91398 -7.6253,7.4716 -4.671,24.10946 -4.6711,33.75261 v 91.99999 m 0,26.66667 v 138.66666 h 125.3334 V 365.56084 l -125.3334,-2.66667 m 156,0 v 138.66666 h 121.3334 c -0.01,-7.24544 1.1084,-16.13688 1.5031,-65.49318 0.3947,-49.3563 -2.3628,-61.17352 -1.5031,-70.50681 -38.8134,-5.65996 -82.0636,-2.64938 -121.3334,-2.66667 m 437.3333,160.67655 c 26.0536,-0.70154 41.2376,18.48722 58.6667,35.03227 13.7465,13.04919 31.7621,26.38708 39.3785,44.29117 8.0732,18.97779 4.6215,43.85205 4.6215,64 v 128 c 0,32.40104 13.7771,100.62801 -33.3335,103.74552 -65.9985,4.36743 -133.8347,1.58781 -199.9998,1.58781 -21.8307,0 -57.5993,6.82617 -75.5033,-8.13891 -19.6399,-16.41602 -12.4967,-53.11451 -12.4967,-75.86109 0,-68.03588 -0.1614,-136.05248 1.2544,-204.04561 0.4667,-22.4167 -8.5046,-64.99108 11.3392,-80.74064 15.0488,-11.9438 41.4489,-7.21374 59.4064,-7.21374 48.8783,0 97.812,0.65873 146.6666,-0.65678 m -593.3333,5.99011 1.3334,140 h 122.6666 l 1.3334,-138.66666 -125.3334,-1.33334 m 154.6667,0 v 140 h 122.6667 V 530.89417 l -122.6667,-1.33334 m 294.7619,94.8359 c -13.5811,3.8549 -19.6547,23.40279 -3.7284,28.94336 12.4247,4.32238 29.2938,1.55407 42.2998,1.55407 h 86.6667 c 12.7212,0 33.2755,3.7946 44.5239,-3.16105 16.7734,-10.37207 0.9056,-26.24528 -12.5365,-27.23738 -34.5367,-2.54895 -69.3796,-1.60157 -103.9874,-1.60157 -16.7001,0 -37.0629,-3.08862 -53.2381,1.50257 m 35.9047,84.45162 c -12.254,0.81599 -29.6085,-2.41871 -40.7768,3.25138 -12.8598,6.52897 -7.9941,22.73755 3.6338,27.36637 13.2414,5.27116 32.4403,2.24878 46.4764,2.04916 25.7868,-0.36687 51.5138,-1.28777 77.3333,-1.28777 13.8558,0 30.4756,2.30608 43.7992,-2.15152 17.4379,-5.83415 13.2374,-27.18116 -3.8551,-29.38811 -39.9364,-5.15641 -86.4441,-2.51408 -126.6108,0.16049 m -40.9372,89.91804 c -14.0656,6.86866 -10.1609,24.13949 3.6996,28.04883 22.2021,6.26205 51.5819,1.41675 74.571,1.41203 8.9602,-0.002 20.5448,1.57894 28.5353,-3.34139 13.8721,-8.54199 3.8903,-24.71615 -8.5776,-27.57007 -20.9999,-4.80705 -46.4674,-1.08878 -67.9577,-1.0883 -9.4802,2.5e-4 -21.4905,-1.74861 -30.2706,2.5389 z"
         id="path2"
         sodipodi:nodetypes="cssssssssssssssccssssscccccccccscccccsssccsssccssscccsccccsscccccccccccccccsccccccccccccccsssssssssssccccccccccccssssssccsssssscsssssss" />
      <circle
         style="fill:#ffffff;fill-opacity:1;stroke:none"
         id="path3"
         cx="1344.391"
         cy="433.34439"
         r="43.416756" />
      <circle
         style="fill:#ffffff;fill-opacity:1;stroke:none"
         id="path3-3"
         cx="1193.4167"
         cy="599.41675"
         r="43.416756" />
    </g>
  </g>
</svg>
