<?xml version="1.0" encoding="UTF-8"?>
<svg width="512" height="512" version="1.1" viewBox="0 0 512 512" xmlns="http://www.w3.org/2000/svg"><g transform="translate(-5.3826 -13.295)"><g transform="matrix(.52788 0 0 .52788 4.2217 6.277)"><g transform="translate(-861.8 -8.5116)"><rect x="971.94" y="96.767" width="785.52" height="815.4" fill="#fff"/><path d="m1104.4 23.515c-38.794 2.585-75.803 4.9167-112 20.829-16.391 7.2057-31.491 16.779-45.333 28.119-78.582 64.374-77.333 157.7-77.333 250.43v278.67c0 98.951-18.69 221.09 44.683 305.33 56.911 75.653 143.86 84 231.32 84h305.33c60.635 0 122.24 3.0906 182.67-2.6872 87.094-8.3283 161.66-64.804 185.36-150.65 15.967-57.838 10.641-120.64 10.641-180v-289.33c0-86.795 11.218-182.88-42.521-257.33-56.03-77.631-144.95-88-233.48-88h-293.33c-51.73 0-104.38-2.8186-156 0.62093m406.67 180.71c-2.896 28.808-0.071 57.804-1.6974 86.667-0.6059 10.75-4.5601 28.875 1.4794 38.526 4.5571 7.2825 16.952 5.4646 24.218 5.4723 17.004 0.0179 45.326-5.3713 60.682 2.7181 12.741 6.7119 5.6754 21.308-6.1107 23.306-26.2 4.4423-56.003 0.64405-82.571 0.64405 5.783 39.657 2.6347 83.876 2.6666 124l-29.333 1.3333-1.3333-124-121.33 1.3333c2e-4 9.618-2.0335 22.418-1.4667 72.239s1.4786 58.118 1.4667 65.095h69.333v1.3333c-9.9082 6.575-16.5 18.746-26.545 24.219-10.832 5.9016-29.452 2.4472-41.455 2.4472v140h32v29.333h-32c0 30.259-1.1228 60.424-1.3498 90.666-0.076 10.153-0.6016 27.124-14.702 27.071-14.335-0.0543-15.831-16.393-15.929-27.071-0.277-30.271 1.0488-60.437 1.3136-90.666h-121.33c9e-4 30.237 1.4977 60.403 1.3218 90.666-0.061 10.534-0.5529 26.781-14.723 27.421-14.656 0.66211-16.279-15.276-16.081-26.088 0.5623-30.652 0.1488-61.343 0.1488-92l-124-1.3333c-4.6202 33.673 4.0729 69.343-2.238 102.64-2.7214 14.36-19.246 24.295-31.004 12.169-13.559-13.983-6.7576-50.153-6.7576-68.147v-468l4e-4 -69.333c0-11.281-1.3481-24.404 6.1821-33.792 8.6322-10.762 22.653-10.185 35.151-10.205l81.333-3e-3h338.67l92 3e-3c13.107 0.0212 28.153-0.34651 35.938 12.344 6.6515 10.842 2.1981 25.306-10.732 28.105-25.072 5.4287-55.57 0.88176-81.207 0.88176m-304 0v130.67h121.33l-1.3333-132-120 1.3333m150.67-1.3333v132l121.33-1.3333 1.3333-129.33-122.67-1.3333m-305.33 133.33 124-1.3333-1.3333-129.33-85.333 8e-5c-9.6225 8.1e-4 -25.089-2.5067-32.662 4.914-7.6253 7.4716-4.671 24.109-4.6711 33.753v92m0 26.667v138.67h125.33v-136l-125.33-2.6667m156 0v138.67h121.33c-0.01-7.2454 1.1084-16.137 1.5031-65.493s-2.3628-61.174-1.5031-70.507c-38.813-5.66-82.064-2.6494-121.33-2.6667m437.33 160.68c26.054-0.70154 41.238 18.487 58.667 35.032 13.746 13.049 31.762 26.387 39.378 44.291 8.0732 18.978 4.6215 43.852 4.6215 64v128c0 32.401 13.777 100.63-33.334 103.75-65.998 4.3674-133.83 1.5878-200 1.5878-21.831 0-57.599 6.8262-75.503-8.1389-19.64-16.416-12.497-53.115-12.497-75.861 0-68.036-0.1614-136.05 1.2544-204.05 0.4667-22.417-8.5046-64.991 11.339-80.741 15.049-11.944 41.449-7.2137 59.406-7.2137 48.878 0 97.812 0.65873 146.67-0.65678m-593.33 5.9901 1.3334 140h122.67l1.3334-138.67-125.33-1.3333m154.67 0v140h122.67v-138.67l-122.67-1.3333m294.76 94.836c-13.581 3.8549-19.655 23.403-3.7284 28.943 12.425 4.3224 29.294 1.5541 42.3 1.5541h86.667c12.721 0 33.276 3.7946 44.524-3.161 16.773-10.372 0.9056-26.245-12.536-27.237-34.537-2.549-69.38-1.6016-103.99-1.6016-16.7 0-37.063-3.0886-53.238 1.5026m35.905 84.452c-12.254 0.81599-29.608-2.4187-40.777 3.2514-12.86 6.529-7.9941 22.738 3.6338 27.366 13.241 5.2712 32.44 2.2488 46.476 2.0492 25.787-0.36687 51.514-1.2878 77.333-1.2878 13.856 0 30.476 2.3061 43.799-2.1515 17.438-5.8342 13.237-27.181-3.8551-29.388-39.936-5.1564-86.444-2.5141-126.61 0.16049m-40.937 89.918c-14.066 6.8687-10.161 24.139 3.6996 28.049 22.202 6.262 51.582 1.4168 74.571 1.412 8.9602-2e-3 20.545 1.5789 28.535-3.3414 13.872-8.542 3.8903-24.716-8.5776-27.57-21-4.807-46.467-1.0888-67.958-1.0883-9.4802 2.5e-4 -21.49-1.7486-30.271 2.5389z" fill="#ee8181"/><circle cx="1344.4" cy="433.34" r="43.417" fill="#fff"/><circle cx="1193.4" cy="599.42" r="43.417" fill="#fff"/></g></g></g></svg>
